<svg width="56" height="56" viewBox="0 0 56 56" fill="none" xmlns="http://www.w3.org/2000/svg">
<rect width="56" height="56" rx="13" fill="white"/>
<path d="M27.7158 8.00002C25.1302 7.99665 22.5695 8.50382 20.1804 9.4924C17.7913 10.481 15.6209 11.9315 13.7937 13.7608C12.7784 14.7774 12.208 16.1555 12.208 17.5923C12.208 19.0291 12.7784 20.4071 13.7937 21.4237C14.297 21.9276 14.8947 22.3273 15.5525 22.6C16.2104 22.8727 16.9156 23.0131 17.6278 23.0131C18.3399 23.0131 19.0451 22.8727 19.703 22.6C20.3608 22.3273 20.9585 21.9276 21.4618 21.4237L33.894 8.99148C31.9006 8.33379 29.8149 7.99907 27.7158 8.00002Z" fill="#FFCC00"/>
<path d="M8.99192 21.5469C7.84954 25.0122 7.6905 28.7264 8.53248 32.2767C9.37445 35.827 11.1845 39.0743 13.7613 41.6576C14.7782 42.6724 16.1561 43.2422 17.5927 43.2422C19.0293 43.2422 20.4073 42.6724 21.4242 41.6576C22.4413 40.6404 23.0127 39.2608 23.0127 37.8223C23.0127 36.3838 22.4413 35.0042 21.4242 33.9869L8.99192 21.5469Z" fill="#0080FF"/>
<path d="M27.7075 47.4351C30.293 47.438 32.8536 46.9307 35.2426 45.9421C37.6317 44.9536 39.8021 43.5032 41.6295 41.6742C42.6443 40.6573 43.2142 39.2794 43.2142 37.8428C43.2142 36.4062 42.6443 35.0283 41.6295 34.0114C40.6123 32.9943 39.2327 32.4229 37.7942 32.4229C36.3557 32.4229 34.9761 32.9943 33.9589 34.0114L21.5266 46.4436C23.521 47.1011 25.6076 47.4358 27.7075 47.4351Z" fill="#FF0055"/>
<path d="M33.9878 13.8149C33.484 14.3182 33.0842 14.9158 32.8115 15.5737C32.5388 16.2316 32.3984 16.9368 32.3984 17.6489C32.3984 18.3611 32.5388 19.0663 32.8115 19.7241C33.0842 20.382 33.484 20.9797 33.9878 21.483L46.4201 33.9152C47.563 30.4513 47.723 26.7384 46.8825 23.1891C46.0419 19.6397 44.2336 16.393 41.6585 13.8097C41.1547 13.3061 40.5565 12.9067 39.8982 12.6344C39.24 12.3621 38.5345 12.2222 37.8221 12.2227C37.1097 12.2231 36.4044 12.364 35.7465 12.6372C35.0886 12.9104 34.491 13.3106 33.9878 13.8149Z" fill="#2BD6A9"/>
</svg>
